<svg xmlns="http://www.w3.org/2000/svg" width="30" height="30" fill="none"><path fill="#fff" d="M27.313 7.5v14.063a1.875 1.875 0 0 1-1.875 1.875H4.813a1.875 1.875 0 0 0 1.875-1.875V7.5a.937.937 0 0 1 .937-.937h18.75a.937.937 0 0 1 .938.937" opacity=".5"/><path fill="#fff" d="M11.375 13.125a.94.94 0 0 1 .938-.937h9.375a.938.938 0 0 1 0 1.874h-9.375a.94.94 0 0 1-.938-.937m.938 4.688h9.375a.938.938 0 0 0 0-1.875h-9.375a.938.938 0 0 0 0 1.874M28.25 7.5v14.063a2.81 2.81 0 0 1-2.812 2.812H4.813A2.81 2.81 0 0 1 2 21.575V10.313a.938.938 0 0 1 1.875 0v11.25a.937.937 0 0 0 1.875 0V7.5a1.875 1.875 0 0 1 1.875-1.875h18.75A1.875 1.875 0 0 1 28.25 7.5m-1.875 0H7.625v14.063c0 .319-.054.636-.16.937h17.973a.94.94 0 0 0 .937-.937z"/></svg>