<svg xmlns="http://www.w3.org/2000/svg" width="30" height="30" fill="none"><path fill="#fff" d="M15 2.5C8.1 2.5 2.5 8.1 2.5 15S8.1 27.5 15 27.5 27.5 21.9 27.5 15 21.9 2.5 15 2.5m5.8 8.5c-.187 1.975-1 6.775-1.413 8.988-.175.937-.524 1.25-.85 1.287-.724.063-1.274-.475-1.974-.937-1.1-.726-1.725-1.175-2.788-1.876-1.238-.812-.437-1.262.275-1.987.188-.187 3.387-3.1 3.45-3.363a.25.25 0 0 0-.062-.225c-.075-.062-.175-.037-.263-.024-.113.024-1.863 1.187-5.275 3.487-.5.337-.95.512-1.35.5-.45-.013-1.3-.25-1.937-.463-.788-.25-1.4-.387-1.35-.825.024-.224.337-.45.925-.687 3.65-1.588 6.074-2.637 7.287-3.137 3.475-1.45 4.188-1.7 4.663-1.7.1 0 .337.024.487.15.125.1.163.237.175.337-.012.075.012.3 0 .475" opacity=".5"/><path fill="#fff" fill-rule="evenodd" d="M19.387 19.987C19.8 17.775 20.612 12.975 20.8 11c.006-.092.003-.198 0-.29a1 1 0 0 1 0-.185.5.5 0 0 0-.175-.338c-.15-.125-.388-.15-.488-.15-.475 0-1.187.25-4.662 1.7-1.213.5-3.638 1.55-7.288 3.138-.587.237-.9.462-.925.687-.044.392.443.543 1.112.75l.238.075c.638.213 1.488.45 1.938.463.4.012.85-.163 1.35-.5 3.412-2.3 5.162-3.463 5.275-3.488l.03-.004c.08-.013.166-.026.232.03a.25.25 0 0 1 .063.224c-.05.209-2.078 2.089-3.005 2.947-.24.223-.406.377-.445.416q-.146.145-.288.28c-.603.573-1.058 1.004.013 1.707.528.348.948.634 1.372.923.43.292.862.588 1.415.952q.21.141.406.282c.522.372.99.706 1.57.656.324-.038.674-.35.85-1.288" clip-rule="evenodd"/></svg>