<svg xmlns="http://www.w3.org/2000/svg" width="30" height="30" fill="none"><path fill="#fff" d="M2.5 15c0 2.05.531 2.739 1.594 4.12C6.215 21.875 9.773 25 15 25s8.785-3.125 10.906-5.88C26.97 17.74 27.5 17.049 27.5 15s-.531-2.739-1.594-4.12C23.785 8.125 20.228 5 15 5 9.773 5 6.215 8.125 4.094 10.88 3.03 12.262 2.5 12.951 2.5 15" opacity=".5"/><path fill="#fff" fill-rule="evenodd" d="M10.313 15a4.688 4.688 0 1 1 9.375 0 4.688 4.688 0 0 1-9.375 0m1.874 0a2.812 2.812 0 1 1 5.625 0 2.812 2.812 0 0 1-5.625 0" clip-rule="evenodd"/></svg>