<svg xmlns="http://www.w3.org/2000/svg" width="30" height="30" fill="none"><path fill="#fff" d="M12.489 3.003 13.218 3h3.564l.73.003.914.01.433.007.418.011.403.014.388.016.374.021.36.025.345.03.333.033c1.74.196 2.933.616 3.833 1.516s1.32 2.092 1.516 3.833l.034.333.029.346.025.36.02.373.025.588.012.41.013.644.009.915.004.98-.001 3.314-.003.73-.01.914-.007.433-.011.418-.014.403-.016.388-.021.374-.025.36-.03.345-.033.333c-.196 1.74-.616 2.933-1.516 3.833s-2.092 1.32-3.833 1.516l-.333.034-.346.029-.36.025-.373.02-.588.025-.41.012-.644.013-.915.009-.98.004-3.313-.001-.73-.003-.914-.01-.433-.007-.418-.011-.403-.014-.388-.016-.374-.021-.36-.025-.345-.03-.333-.033c-1.74-.196-2.933-.616-3.833-1.516s-1.32-2.092-1.516-3.833l-.034-.333-.029-.346-.025-.36-.02-.373-.025-.588-.012-.41-.013-.644-.009-.915L3 16.53l.001-3.314.003-.73.01-.914.007-.433.011-.418.014-.403.016-.388.021-.374.025-.36.03-.345.033-.333c.196-1.74.616-2.933 1.516-3.833S6.779 3.366 8.52 3.17l.333-.034.346-.029.36-.025.373-.02.588-.025.41-.012.644-.013zM9.79 10.299H7.05c.13 6.24 3.25 9.99 8.72 9.99h.31v-3.57c2.01.2 3.53 1.67 4.14 3.57h2.84c-.78-2.84-2.83-4.41-4.11-5.01 1.28-.74 3.08-2.54 3.51-4.98h-2.58c-.56 1.98-2.22 3.78-3.8 3.95V10.3H13.5v6.92c-1.6-.4-3.62-2.34-3.71-6.92" opacity=".5"/><path fill="#fff" fill-rule="evenodd" d="M7.05 10.299h2.74c.09 4.58 2.11 6.52 3.71 6.92V10.3h2.58v3.95c1.58-.17 3.24-1.97 3.8-3.95h2.58c-.43 2.44-2.23 4.24-3.51 4.98 1.28.6 3.33 2.17 4.11 5.01h-2.84c-.61-1.9-2.13-3.37-4.14-3.57v3.57h-.31c-5.47 0-8.59-3.75-8.72-9.99" clip-rule="evenodd"/></svg>