<svg xmlns="http://www.w3.org/2000/svg" width="30" height="30" fill="none"><path fill="#fff" fill-rule="evenodd" d="M15 27.5c6.904 0 12.5-5.596 12.5-12.5S21.904 2.5 15 2.5 2.5 8.096 2.5 15 8.096 27.5 15 27.5m0-7.5a5 5 0 1 0 0-10 5 5 0 0 0 0 10" clip-rule="evenodd" opacity=".5"/><path fill="#fff" d="m6.849 24.478 5.34-5.341a5 5 0 0 1-1.325-1.326l-5.342 5.34q.615.711 1.325 1.324M5.522 6.85l5.342 5.34c.354-.521.803-.97 1.325-1.325L6.85 5.521q-.712.616-1.326 1.327m12.286 4.016 5.34-5.339q.713.613 1.325 1.325l-5.338 5.34a5 5 0 0 0-1.326-1.325m6.665 12.286-5.341-5.34a5 5 0 0 1-1.325 1.324l5.34 5.343q.714-.615 1.326-1.327"/></svg>