<svg xmlns="http://www.w3.org/2000/svg" width="86" height="86" fill="none"><path fill="#141414" d="M11.734 25.9c2.986-2.988 7.289-3.824 14.45-4.058l5.313-.085q2.082-.011 4.42-.007h14.166q2.345 0 4.42.007l5.313.085c7.161.234 11.464 1.07 14.45 4.059 4.15 4.147 4.15 10.827 4.15 24.182 0 13.356 0 20.036-4.15 24.183s-10.827 4.15-24.183 4.15H35.917c-13.356 0-20.035 0-24.183-4.15s-4.15-10.827-4.15-24.183 0-20.035 4.15-24.182" opacity=".5"/><path fill="#141414" d="M45.656 35.917a2.657 2.657 0 1 0-5.312 0v.035c-3.857.97-7.084 4.013-7.084 8.227 0 5.16 4.835 8.56 9.74 8.56 2.918 0 4.427 1.888 4.427 3.248S45.918 59.231 43 59.231s-4.427-1.884-4.427-3.244a2.656 2.656 0 1 0-5.313 0c0 4.215 3.227 7.254 7.084 8.228v.035a2.657 2.657 0 1 0 5.312 0v-.035c3.857-.97 7.084-4.013 7.084-8.228 0-5.16-4.835-8.56-9.74-8.56-2.918 0-4.427-1.888-4.427-3.248s1.509-3.244 4.427-3.244 4.427 1.884 4.427 3.244a2.656 2.656 0 1 0 5.313 0c0-4.214-3.227-7.257-7.084-8.227zm-2.472-30.99h-.368c-3.18 0-5.837 0-7.94.283-2.225.298-4.233.957-5.844 2.568-1.615 1.615-2.274 3.623-2.572 5.844-.201 1.512-.258 5.121-.276 8.217l5.313-.082c.017-3 .07-6.226.23-7.427.22-1.633.598-2.334 1.062-2.794s1.158-.84 2.795-1.063c1.71-.226 4.002-.233 7.416-.233s5.71.007 7.42.237c1.633.22 2.334.598 2.794 1.062s.843 1.159 1.063 2.791c.159 1.204.212 4.427.226 7.427l5.313.085c-.014-3.099-.071-6.708-.276-8.217-.298-2.224-.957-4.232-2.568-5.843-1.615-1.615-3.623-2.274-5.844-2.572-2.107-.283-4.76-.283-7.944-.283"/></svg>