<svg xmlns="http://www.w3.org/2000/svg" width="86" height="86" fill="none"><path fill="#141414" d="m48.77 73.005-1.92 3.244c-1.71 2.89-5.986 2.89-7.7 0l-1.92-3.244c-1.487-2.515-2.23-3.775-3.428-4.47-1.197-.697-2.702-.722-5.712-.775-4.449-.075-7.236-.347-9.573-1.318a17.7 17.7 0 0 1-9.584-9.583c-1.35-3.252-1.35-7.378-1.35-15.63v-3.541c0-11.592 0-17.39 2.61-21.647a17.7 17.7 0 0 1 5.844-5.847c4.26-2.61 10.062-2.61 21.65-2.61h10.626c11.591 0 17.39 0 21.65 2.61a17.7 17.7 0 0 1 5.844 5.843c2.61 4.26 2.61 10.062 2.61 21.65v3.542c0 8.252 0 12.378-1.346 15.63a17.7 17.7 0 0 1-9.587 9.583c-2.338.97-5.125 1.24-9.574 1.318-3.01.053-4.515.078-5.712.775-1.197.695-1.941 1.952-3.429 4.47" opacity=".5"/><path fill="#141414" d="M26.177 32.375a2.656 2.656 0 0 1 2.656-2.656h28.334a2.656 2.656 0 1 1 0 5.312H28.833a2.656 2.656 0 0 1-2.656-2.656m0 12.396a2.656 2.656 0 0 1 2.656-2.656h19.48a2.656 2.656 0 1 1 0 5.312h-19.48a2.656 2.656 0 0 1-2.656-2.656"/></svg>