<svg xmlns="http://www.w3.org/2000/svg" width="85" height="85" fill="none"><path fill="#141414" fill-rule="evenodd" d="M42.5 77.917c19.56 0 35.417-15.856 35.417-35.417 0-19.56-15.856-35.417-35.417-35.417C22.94 7.083 7.083 22.94 7.083 42.5c0 19.56 15.856 35.417 35.417 35.417m0-21.25a14.166 14.166 0 1 0 0-28.333 14.166 14.166 0 0 0 0 28.333" clip-rule="evenodd" opacity=".5"/><path fill="#141414" d="m19.405 69.353 15.13-15.134a14.2 14.2 0 0 1-3.754-3.754L15.647 65.592a36 36 0 0 0 3.754 3.754m-3.754-49.938 15.134 15.13a14.2 14.2 0 0 1 3.754-3.754l-15.127-15.14a36 36 0 0 0-3.757 3.757m34.81 11.38 15.13-15.127a35 35 0 0 1 3.755 3.754l-15.123 15.13a14.2 14.2 0 0 0-3.758-3.754M69.35 65.595 54.216 50.462a14.2 14.2 0 0 1-3.754 3.754l15.13 15.137a35 35 0 0 0 3.757-3.758"/></svg>