<svg xmlns="http://www.w3.org/2000/svg" width="86" height="86" fill="none"><path fill="#141414" d="M20.865 25.292a2.656 2.656 0 1 0 0 5.312H35.03a2.656 2.656 0 0 0 0-5.312z"/><path fill="#141414" fill-rule="evenodd" d="M75.54 28.848a11 11 0 0 0-.708-.015h-9.82c-8.044 0-14.929 6.149-14.929 14.167s6.885 14.167 14.929 14.167h9.82q.376.003.709-.014c3.269-.199 6.159-2.681 6.403-6.152.014-.227.014-.471.014-.698V35.697c0-.227 0-.471-.014-.698-.244-3.47-3.134-5.95-6.403-6.152M64.148 46.779c2.069 0 3.747-1.693 3.747-3.779 0-2.09-1.678-3.779-3.747-3.779S60.393 40.914 60.393 43c0 2.09 1.682 3.779 3.754 3.779" clip-rule="evenodd"/><path fill="#141414" d="M75.37 28.84c0-4.182-.155-8.67-2.825-11.882a14 14 0 0 0-.826-.906c-2.652-2.65-6.013-3.825-10.164-4.385-4.038-.542-9.19-.542-15.7-.542h-7.48c-6.51 0-11.667 0-15.704.542-4.151.56-7.512 1.735-10.165 4.385-2.649 2.652-3.825 6.013-4.384 10.164-.539 4.037-.539 9.19-.539 15.7v.397c0 6.51 0 11.666.542 15.7.56 4.151 1.736 7.512 4.385 10.165 2.653 2.649 6.013 3.825 10.164 4.384 4.038.542 9.191.542 15.7.542h7.48c6.51 0 11.667 0 15.7-.542 4.152-.56 7.513-1.735 10.165-4.384a13.6 13.6 0 0 0 1.863-2.338c1.594-2.55 1.785-5.674 1.785-8.677l-.531.004h-9.824c-8.044 0-14.929-6.149-14.929-14.167s6.885-14.167 14.929-14.167h9.82q.282 0 .539.007" opacity=".5"/></svg>