<svg width="86" height="86" viewBox="0 0 86 86" fill="none" xmlns="http://www.w3.org/2000/svg">
<path d="M11.125 43C7.22919 43 4.04169 39.8125 4.04169 35.9167V18.2083C4.04169 14.3125 7.22919 11.125 11.125 11.125H39.4584C43.3542 11.125 46.5417 14.3125 46.5417 18.2083V35.9167C46.5417 39.8125 43.3542 43 39.4584 43H32.375V53.625L21.75 43H11.125Z" fill="#141414"/>
<path opacity="0.5" d="M81.958 57.1667C81.958 61.0625 78.7705 64.25 74.8747 64.25H64.2497L53.6247 74.875V64.25H46.5413C42.6455 64.25 39.458 61.0625 39.458 57.1667V50.0833C47.2497 50.0833 53.6247 43.7083 53.6247 35.9167V32.375H74.8747C78.7705 32.375 81.958 35.5625 81.958 39.4583V57.1667Z" fill="#141414"/>
</svg>
