<svg xmlns="http://www.w3.org/2000/svg" width="86" height="86" fill="none"><path fill="#141414" d="M11.125 43c-3.896 0-7.083-3.187-7.083-7.083V18.208c0-3.895 3.187-7.083 7.083-7.083h28.333c3.896 0 7.084 3.188 7.084 7.083v17.709c0 3.895-3.188 7.083-7.084 7.083h-7.083v10.625L21.75 43z"/><path fill="#141414" d="M81.958 57.167c0 3.895-3.187 7.083-7.083 7.083H64.25L53.625 74.875V64.25H46.54c-3.895 0-7.083-3.187-7.083-7.083v-7.084c7.792 0 14.167-6.375 14.167-14.166v-3.542h21.25c3.895 0 7.083 3.188 7.083 7.083z" opacity=".5"/></svg>