<svg xmlns="http://www.w3.org/2000/svg" width="86" height="86" fill="none"><path fill="#141414" d="M27.063 21.75a10.625 10.625 0 1 0 0 21.25 10.625 10.625 0 0 0 0-21.25m13.28 26.563H13.782a7.97 7.97 0 0 0-7.969 7.968c0 5.929 2.439 10.678 6.44 13.892 3.936 3.161 9.216 4.702 14.81 4.702s10.875-1.54 14.812-4.702c3.995-3.214 6.438-7.963 6.438-13.892a7.97 7.97 0 0 0-7.968-7.968"/><path fill="#141414" d="M47.212 10.025a5.31 5.31 0 0 1 3.757-1.556h21.25a5.313 5.313 0 0 1 5.312 5.312v10.625a5.313 5.313 0 0 1-5.312 5.313H60.53l-9.562 7.968V29.72a5.313 5.313 0 0 1-5.313-5.313V13.781c0-1.409.56-2.76 1.556-3.756" opacity=".5"/></svg>