<svg width="22" height="23" viewBox="0 0 22 23" fill="none" xmlns="http://www.w3.org/2000/svg">
<path d="M14.5091 15.697L13.5091 15.697L13.5091 15.697L14.5091 15.697ZM13.802 22.2074C14.1925 22.5979 14.8257 22.5979 15.2162 22.2074L21.5801 15.8435C21.9707 15.4529 21.9707 14.8198 21.5801 14.4292C21.1896 14.0387 20.5565 14.0387 20.1659 14.4292L14.5091 20.0861L8.85222 14.4292C8.46169 14.0387 7.82853 14.0387 7.43801 14.4292C7.04748 14.8198 7.04748 15.4529 7.438 15.8435L13.802 22.2074ZM13.5091 15.697L13.5091 21.5003L15.5091 21.5003L15.5091 15.697L13.5091 15.697ZM0.449822 2.63751C7.6623 2.63766 13.5091 8.48457 13.5091 15.697L15.5091 15.697C15.5091 7.38002 8.76689 0.637688 0.449867 0.637506L0.449822 2.63751Z" fill="white"/>
</svg>
