<svg width="12" height="28" viewBox="0 0 12 28" fill="none" xmlns="http://www.w3.org/2000/svg">
<path d="M5.437 22.7483L4.72989 22.0412L5.437 22.7483ZM0.541818 26.6435C0.541817 27.1958 0.989532 27.6435 1.54182 27.6435L10.5418 27.6435C11.0941 27.6435 11.5418 27.1958 11.5418 26.6435C11.5418 26.0912 11.0941 25.6435 10.5418 25.6435L2.54182 25.6435L2.54182 17.6435C2.54182 17.0912 2.0941 16.6435 1.54182 16.6435C0.989534 16.6435 0.541819 17.0912 0.541819 17.6435L0.541818 26.6435ZM4.72989 22.0412L0.83471 25.9364L2.24892 27.3506L6.1441 23.4554L4.72989 22.0412ZM1.13153 2.41195C8.86917 5.8933 10.7295 16.0416 4.72989 22.0412L6.1441 23.4554C13.1334 16.4661 10.9662 4.6437 1.95214 0.588053L1.13153 2.41195Z" fill="white"/>
</svg>
