<svg width="36" height="33" viewBox="0 0 36 33" fill="none" xmlns="http://www.w3.org/2000/svg">
<g filter="url(#filter0_f_206_246)">
<path d="M17.1033 0.816985C17.4701 0.0737393 18.5299 0.0737401 18.8967 0.816986L23.3513 9.8429C23.497 10.138 23.7785 10.3426 24.1042 10.3899L34.0649 11.8373C34.8851 11.9565 35.2126 12.9645 34.6191 13.543L27.4115 20.5687C27.1758 20.7984 27.0683 21.1294 27.1239 21.4538L28.8254 31.3743C28.9655 32.1912 28.1081 32.8141 27.3744 32.4284L18.4653 27.7446C18.174 27.5915 17.826 27.5915 17.5347 27.7446L8.62555 32.4284C7.89192 32.8141 7.03449 32.1912 7.1746 31.3743L8.87609 21.4538C8.93173 21.1294 8.82418 20.7984 8.58849 20.5687L1.38087 13.543C0.787358 12.9645 1.11487 11.9565 1.93509 11.8373L11.8958 10.3899C12.2215 10.3426 12.503 10.138 12.6487 9.8429L17.1033 0.816985Z" fill="url(#paint0_linear_206_246)"/>
</g>
<defs>
<filter id="filter0_f_206_246" x="0.87782" y="0.0595215" width="34.2444" height="32.6859" filterUnits="userSpaceOnUse" color-interpolation-filters="sRGB">
<feFlood flood-opacity="0" result="BackgroundImageFix"/>
<feBlend mode="normal" in="SourceGraphic" in2="BackgroundImageFix" result="shape"/>
<feGaussianBlur stdDeviation="0.1" result="effect1_foregroundBlur_206_246"/>
</filter>
<linearGradient id="paint0_linear_206_246" x1="18" y1="-1" x2="18" y2="37" gradientUnits="userSpaceOnUse">
<stop stop-color="#9732C9"/>
<stop offset="0.275" stop-color="#4E44D5"/>
<stop offset="1" stop-color="#0B80E0"/>
</linearGradient>
</defs>
</svg>
