<svg width="38" height="49" viewBox="0 0 38 49" fill="none" xmlns="http://www.w3.org/2000/svg">
<path d="M16.5 3L16.5 0.5L21.5 0.5L21.5 3L16.5 3ZM20.7678 47.7678C19.7915 48.7441 18.2085 48.7441 17.2322 47.7678L1.32233 31.8579C0.346019 30.8816 0.346019 29.2986 1.32233 28.3223C2.29864 27.346 3.88155 27.346 4.85786 28.3223L19 42.4645L33.1421 28.3223C34.1184 27.346 35.7014 27.346 36.6777 28.3223C37.654 29.2986 37.654 30.8816 36.6777 31.8579L20.7678 47.7678ZM21.5 3L21.5 46L16.5 46L16.5 3L21.5 3Z" fill="white"/>
</svg>
