<svg width="59" height="57" viewBox="0 0 59 57" fill="none" xmlns="http://www.w3.org/2000/svg">
<path opacity="0.5" fill-rule="evenodd" clip-rule="evenodd" d="M29.5 56.4168C45.3786 56.4168 58.25 43.9185 58.25 28.5002C58.25 13.0818 45.3786 0.583496 29.5 0.583496C13.6214 0.583496 0.75 13.0818 0.75 28.5002C0.75 43.9185 13.6214 56.4168 29.5 56.4168ZM29.5 39.6668C32.55 39.6668 35.4751 38.4903 37.6317 36.3962C39.7884 34.302 41 31.4617 41 28.5002C41 25.5386 39.7884 22.6983 37.6317 20.6041C35.4751 18.51 32.55 17.3335 29.5 17.3335C26.45 17.3335 23.5249 18.51 21.3683 20.6041C19.2116 22.6983 18 25.5386 18 28.5002C18 31.4617 19.2116 34.302 21.3683 36.3962C23.5249 38.4903 26.45 39.6668 29.5 39.6668Z" fill="white"/>
</svg>
