<svg width="67" height="67" viewBox="0 0 67 67" fill="none" xmlns="http://www.w3.org/2000/svg">
<path d="M13.6568 26.839C13.6568 25.7167 14.5585 24.8066 15.6723 24.8066H26.437C27.5537 24.8066 28.4554 25.7167 28.4554 26.839C28.4565 27.1051 28.4051 27.3689 28.3043 27.6152C28.2035 27.8615 28.0551 28.0856 27.8677 28.2746C27.6803 28.4635 27.4574 28.6138 27.212 28.7166C26.9665 28.8195 26.7032 28.873 26.437 28.8741H15.6723C15.1353 28.8711 14.6214 28.6552 14.2435 28.2736C13.8655 27.892 13.6545 27.376 13.6568 26.839Z" fill="white"/>
<path fill-rule="evenodd" clip-rule="evenodd" d="M59.1498 27.9276C58.9748 27.9183 58.7887 27.9146 58.5914 27.9165H50.8501C44.5103 27.9165 39.0833 32.7628 39.0833 39.0831C39.0833 45.4035 44.5103 50.2498 50.8501 50.2498H58.5914C58.7887 50.2517 58.9748 50.248 59.1498 50.2386C61.7265 50.0823 64.0045 48.1254 64.1971 45.3895C64.2083 45.2109 64.2083 45.0182 64.2083 44.8396V33.3267C64.2083 33.1481 64.2083 32.9554 64.1971 32.7768C64.0045 30.0409 61.7265 28.0868 59.1498 27.9276ZM50.169 42.0619C51.7993 42.0619 53.1225 40.7274 53.1225 39.0831C53.1225 37.4361 51.7993 36.1044 50.169 36.1044C48.5386 36.1044 47.2098 37.4389 47.2098 39.0831C47.2098 40.7302 48.5358 42.0619 50.169 42.0619Z" fill="white"/>
<path opacity="0.5" d="M59.0158 27.9224C59.0158 24.6255 58.8929 21.0884 56.788 18.5564C56.5816 18.3089 56.3646 18.0704 56.1375 17.8417C54.0466 15.7535 51.3973 14.8267 48.1255 14.3856C44.943 13.9585 40.8811 13.9585 35.75 13.9585H29.854C24.7229 13.9585 20.6583 13.9585 17.4758 14.3856C14.2039 14.8267 11.5546 15.7535 9.46367 17.8417C7.3755 19.9327 6.44867 22.582 6.00759 25.8538C5.58325 29.0363 5.58325 33.0982 5.58325 38.2292V38.5419C5.58325 43.673 5.58325 47.7377 6.01038 50.9174C6.45146 54.1892 7.37829 56.8385 9.46646 58.9295C11.5574 61.0176 14.2067 61.9445 17.4785 62.3855C20.661 62.8127 24.7229 62.8127 29.854 62.8127H35.75C40.8811 62.8127 44.9458 62.8127 48.1255 62.3855C51.3973 61.9445 54.0466 61.0176 56.1375 58.9295C56.7052 58.3562 57.1947 57.7421 57.606 57.087C58.8622 55.077 59.013 52.6147 59.013 50.2474L58.5942 50.2502H50.8501C44.5103 50.2502 39.0833 45.4038 39.0833 39.0835C39.0833 32.7632 44.5103 27.9168 50.8501 27.9168H58.5914C58.7384 27.9168 58.8818 27.9187 59.0158 27.9224Z" fill="white"/>
<path d="M28.1986 7.1804L22.3333 11.1446L17.4954 14.3829C20.6723 13.9586 24.7314 13.9586 29.8541 13.9586H35.7501C40.8812 13.9586 44.9458 13.9586 48.1255 14.3857C48.7658 14.4694 49.3818 14.5755 49.9736 14.7039L44.6667 11.1669L38.7679 7.1804C37.2019 6.13966 35.3635 5.58447 33.4832 5.58447C31.603 5.58447 29.7646 6.13966 28.1986 7.1804Z" fill="white"/>
</svg>
