<svg width="75" height="133" viewBox="0 0 75 133" fill="none" xmlns="http://www.w3.org/2000/svg">
<path d="M29.9997 49.3177L33.9997 49.3177L29.9997 49.3177ZM27.1713 131.146C28.7334 132.708 31.2661 132.708 32.8282 131.146L58.284 105.69C59.8461 104.128 59.8461 101.595 58.284 100.033C56.7219 98.471 54.1892 98.471 52.6271 100.033L29.9997 122.661L7.37231 100.033C5.81021 98.471 3.27755 98.471 1.71546 100.033C0.153359 101.595 0.153357 104.128 1.71546 105.69L27.1713 131.146ZM25.9997 49.3177L25.9997 128.317L33.9997 128.317L33.9997 49.3177L25.9997 49.3177ZM75 0.317448C47.9379 0.317413 25.9997 22.2556 25.9997 49.3177L33.9997 49.3177C33.9997 26.6739 52.3562 8.31742 75 8.31745L75 0.317448Z" fill="url(#paint0_linear_436_415)"/>
<defs>
<linearGradient id="paint0_linear_436_415" x1="72.6569" y1="120.817" x2="72.6569" y2="-10.3413" gradientUnits="userSpaceOnUse">
<stop stop-color="#2E1ADE"/>
<stop offset="1" stop-color="white"/>
</linearGradient>
</defs>
</svg>
