<svg width="61" height="61" viewBox="0 0 61 61" fill="none" xmlns="http://www.w3.org/2000/svg">
<path opacity="0.5" d="M5.29695 6.99201C5.46453 6.51514 5.81465 6.12435 6.2703 5.90558C6.72596 5.68681 7.24985 5.65796 7.72678 5.82538L8.49182 6.0948C10.06 6.64634 11.3893 7.11401 12.439 7.62742C13.5574 8.17896 14.5181 8.85505 15.2399 9.91238C15.9567 10.9595 16.2541 12.1109 16.3888 13.3741C16.4481 13.9384 16.4854 14.5636 16.5006 15.2499H43.5389C47.8216 15.2499 51.6773 15.2499 52.8058 16.7164C53.9343 18.183 53.492 20.3942 52.6101 24.8142L51.3392 30.9777C50.5386 34.8614 50.1396 36.8058 48.7366 37.947C47.3336 39.0907 45.3511 39.0907 41.3835 39.0907H27.9051C20.8138 39.0907 17.2707 39.0907 15.0697 36.7676C12.8686 34.4445 12.7059 31.9791 12.7059 24.5015V17.8881C12.7059 16.0073 12.7059 14.7492 12.5992 13.7833C12.4975 12.8607 12.3221 12.3981 12.0908 12.0626C11.8697 11.7348 11.5317 11.4272 10.759 11.051C9.93803 10.6495 8.82224 10.253 7.1244 9.65567L6.46357 9.42438C6.22693 9.34167 6.00892 9.2131 5.82203 9.04602C5.63515 8.87894 5.48305 8.67665 5.37445 8.45071C5.26585 8.22477 5.20288 7.97964 5.18914 7.72933C5.17541 7.47903 5.21118 7.22847 5.2944 6.99201" fill="white"/>
<path d="M19.0625 45.7499C20.0736 45.7499 21.0434 46.1515 21.7583 46.8665C22.4733 47.5815 22.875 48.5512 22.875 49.5624C22.875 50.5735 22.4733 51.5432 21.7583 52.2582C21.0434 52.9732 20.0736 53.3749 19.0625 53.3749C18.0514 53.3749 17.0816 52.9732 16.3667 52.2582C15.6517 51.5432 15.25 50.5735 15.25 49.5624C15.25 48.5512 15.6517 47.5815 16.3667 46.8665C17.0816 46.1515 18.0514 45.7499 19.0625 45.7499ZM41.9375 45.7499C42.9486 45.7499 43.9184 46.1515 44.6333 46.8665C45.3483 47.5815 45.75 48.5512 45.75 49.5624C45.75 50.5735 45.3483 51.5432 44.6333 52.2582C43.9184 52.9732 42.9486 53.3749 41.9375 53.3749C40.9264 53.3749 39.9566 52.9732 39.2417 52.2582C38.5267 51.5432 38.125 50.5735 38.125 49.5624C38.125 48.5512 38.5267 47.5815 39.2417 46.8665C39.9566 46.1515 40.9264 45.7499 41.9375 45.7499ZM39.5026 24.1889C39.6826 24.0092 39.8249 23.7952 39.9209 23.5596C40.017 23.3241 40.0649 23.0717 40.0619 22.8173C40.0589 22.5629 40.005 22.3117 39.9034 22.0785C39.8018 21.8452 39.6545 21.6347 39.4703 21.4593C39.286 21.2838 39.0685 21.1471 38.8306 21.057C38.5927 20.967 38.3391 20.9254 38.0849 20.9349C37.8307 20.9444 37.5809 21.0046 37.3503 21.1121C37.1198 21.2196 36.913 21.3722 36.7423 21.5608L30.8609 27.7371L29.3359 26.1358C29.1652 25.9472 28.9585 25.7946 28.7279 25.6871C28.4973 25.5796 28.2476 25.5194 27.9934 25.5099C27.7391 25.5004 27.4856 25.542 27.2477 25.632C27.0097 25.7221 26.7922 25.8588 26.608 26.0343C26.4237 26.2097 26.2765 26.4202 26.1749 26.6535C26.0732 26.8867 26.0193 27.1379 26.0163 27.3923C26.0133 27.6467 26.0613 27.8991 26.1573 28.1346C26.2534 28.3702 26.3956 28.5842 26.5757 28.7639L29.4808 31.8139C29.6588 32.0008 29.8729 32.1495 30.1102 32.2512C30.3474 32.3528 30.6028 32.4052 30.8609 32.4052C31.119 32.4052 31.3744 32.3528 31.6117 32.2512C31.8489 32.1495 32.063 32.0008 32.241 31.8139L39.5026 24.1889Z" fill="white"/>
</svg>
