<svg xmlns="http://www.w3.org/2000/svg" width="55" height="151" fill="none"><path fill="url(#a)" d="m13.55 98.233 3.496-1.945zm25.648 51.907a4 4 0 0 0 4.943-2.75l9.866-34.622a4 4 0 0 0-7.694-2.192l-8.77 30.774-30.774-8.77a4 4 0 0 0-2.193 7.694zm-29.143-49.962L36.8 148.239l6.99-3.89-26.743-48.06zM38.35.893C3.119 20.497-9.548 64.948 10.055 100.178l6.991-3.89C-.409 64.92 10.87 25.34 42.239 7.884z"/><defs><linearGradient id="a" x1="73.922" x2="10.147" y1="118.998" y2="4.389" gradientUnits="userSpaceOnUse"><stop stop-color="#2E1ADE"/><stop offset="1" stop-color="#fff"/></linearGradient></defs></svg>