<svg xmlns="http://www.w3.org/2000/svg" width="54" height="151" fill="none"><path fill="url(#a)" d="m40.743 98.233-3.495-1.945zM15.096 150.14a4 4 0 0 1-4.943-2.75L.287 112.768a4 4 0 0 1 7.694-2.192l8.77 30.774 30.774-8.77a4 4 0 0 1 2.193 7.694zm29.143-49.962-26.744 48.061-6.99-3.89 26.743-48.06zM15.945.893c35.23 19.604 47.897 64.055 28.294 99.285l-6.991-3.89C54.703 64.92 43.424 25.34 12.055 7.884z"/><defs><linearGradient id="a" x1="-19.628" x2="44.147" y1="118.998" y2="4.389" gradientUnits="userSpaceOnUse"><stop stop-color="#2E1ADE"/><stop offset="1" stop-color="#fff"/></linearGradient></defs></svg>