<svg width="50" height="50" viewBox="0 0 50 50" fill="none" xmlns="http://www.w3.org/2000/svg">
<rect width="50" height="50" rx="15" fill="url(#paint0_linear_208_351)"/>
<path fill-rule="evenodd" clip-rule="evenodd" d="M36.703 28.4471C36.703 28.4471 39.1285 30.8426 39.7285 31.9511C39.7409 31.9666 39.7501 31.9844 39.7555 32.0036C39.9995 32.4126 40.061 32.7351 39.94 32.9711C39.7375 33.3626 39.052 33.5591 38.8195 33.5756H34.5325C34.234 33.5756 33.613 33.4976 32.857 32.9756C32.2795 32.5721 31.705 31.9076 31.1485 31.2581C30.3175 30.2936 29.599 29.4566 28.8715 29.4566C28.7797 29.4577 28.6887 29.4729 28.6015 29.5016C28.051 29.6756 27.352 30.4601 27.352 32.5496C27.352 33.2036 26.836 33.5756 26.4745 33.5756H24.511C23.842 33.5756 20.359 33.3416 17.2705 30.0851C13.486 26.0981 10.087 18.1001 10.054 18.0296C9.84251 17.5121 10.2865 17.2301 10.7665 17.2301H15.0955C15.676 17.2301 15.865 17.5811 15.997 17.8961C16.15 18.2576 16.717 19.7036 17.647 21.3281C19.153 23.9711 20.0785 25.0466 20.818 25.0466C20.9569 25.0468 21.0935 25.0106 21.214 24.9416C22.18 24.4106 22 20.9606 21.955 20.2496C21.955 20.1116 21.9535 18.7091 21.4585 18.0311C21.1045 17.5451 20.5015 17.3561 20.137 17.2871C20.2345 17.1461 20.4415 16.9301 20.707 16.8026C21.3685 16.4726 22.564 16.4246 23.7505 16.4246H24.409C25.696 16.4426 26.029 16.5251 26.497 16.6436C27.439 16.8686 27.457 17.4791 27.3745 19.5581C27.3505 20.1521 27.325 20.8211 27.325 21.6086C27.325 21.7766 27.3175 21.9641 27.3175 22.1546C27.289 23.2211 27.2515 24.4226 28.0045 24.9161C28.1018 24.9777 28.2148 25.0099 28.33 25.0091C28.591 25.0091 29.3725 25.0091 31.492 21.3716C32.422 19.7651 33.142 17.8706 33.1915 17.7281C33.2335 17.6486 33.3595 17.4251 33.5125 17.3351C33.6218 17.2784 33.7434 17.2496 33.8665 17.2511H38.959C39.514 17.2511 39.8905 17.3351 39.964 17.5451C40.087 17.8856 39.94 18.9251 37.615 22.0691C37.2235 22.5926 36.88 23.0456 36.5785 23.4416C34.471 26.2076 34.471 26.3471 36.703 28.4471Z" fill="white"/>
<defs>
<linearGradient id="paint0_linear_208_351" x1="0" y1="25" x2="50" y2="25" gradientUnits="userSpaceOnUse">
<stop stop-color="#0075FF"/>
<stop offset="1" stop-color="#331BAB"/>
</linearGradient>
</defs>
</svg>
