<svg width="50" height="50" viewBox="0 0 50 50" fill="none" xmlns="http://www.w3.org/2000/svg">
<rect width="50" height="50" rx="15" fill="url(#paint0_linear_208_353)"/>
<path fill-rule="evenodd" clip-rule="evenodd" d="M34.5211 14.1468C34.83 14.0168 35.1681 13.972 35.5002 14.017C35.8323 14.062 36.1463 14.1952 36.4095 14.4027C36.6726 14.6102 36.8754 14.8845 36.9966 15.1969C37.1178 15.5094 37.153 15.8486 37.0986 16.1793L34.2636 33.3756C33.9886 35.0343 32.1686 35.9856 30.6474 35.1593C29.3749 34.4681 27.4849 33.4031 25.7849 32.2918C24.9349 31.7356 22.3311 29.9543 22.6511 28.6868C22.9261 27.6031 27.3011 23.5306 29.8011 21.1093C30.7824 20.1581 30.3349 19.6093 29.1761 20.4843C26.2986 22.6568 21.6786 25.9606 20.1511 26.8906C18.8036 27.7106 18.1011 27.8506 17.2611 27.7106C15.7286 27.4556 14.3074 27.0606 13.1474 26.5793C11.5799 25.9293 11.6561 23.7743 13.1461 23.1468L34.5211 14.1468Z" fill="white"/>
<defs>
<linearGradient id="paint0_linear_208_353" x1="0" y1="25" x2="50" y2="25" gradientUnits="userSpaceOnUse">
<stop stop-color="#0075FF"/>
<stop offset="1" stop-color="#331BAB"/>
</linearGradient>
</defs>
</svg>
