<svg width="50" height="50" viewBox="0 0 50 50" fill="none" xmlns="http://www.w3.org/2000/svg">
<rect width="50" height="50" rx="15" fill="url(#paint0_linear_208_349)"/>
<path d="M34.0875 16.6625C32.425 15.8875 30.625 15.325 28.75 15C28.7171 15.0005 28.6856 15.0139 28.6625 15.0375C28.4375 15.45 28.175 15.9875 28 16.4C26.0113 16.1002 23.9888 16.1002 22 16.4C21.825 15.975 21.5625 15.45 21.325 15.0375C21.3125 15.0125 21.275 15 21.2375 15C19.3625 15.325 17.575 15.8875 15.9 16.6625C15.8875 16.6625 15.875 16.675 15.8625 16.6875C12.4625 21.775 11.525 26.725 11.9875 31.625C11.9875 31.65 12 31.675 12.025 31.6875C14.275 33.3375 16.4375 34.3375 18.575 35C18.6125 35.0125 18.65 35 18.6625 34.975C19.1625 34.2875 19.6125 33.5625 20 32.8C20.025 32.75 20 32.7 19.95 32.6875C19.2375 32.4125 18.5625 32.0875 17.9 31.7125C17.85 31.6875 17.85 31.6125 17.8875 31.575C18.025 31.475 18.1625 31.3625 18.3 31.2625C18.325 31.2375 18.3625 31.2375 18.3875 31.25C22.6875 33.2125 27.325 33.2125 31.575 31.25C31.6 31.2375 31.6375 31.2375 31.6625 31.2625C31.8 31.375 31.9375 31.475 32.075 31.5875C32.125 31.625 32.125 31.7 32.0625 31.725C31.4125 32.1125 30.725 32.425 30.0125 32.7C29.9625 32.7125 29.95 32.775 29.9625 32.8125C30.3625 33.575 30.8125 34.3 31.3 34.9875C31.3375 35 31.375 35.0125 31.4125 35C33.5625 34.3375 35.725 33.3375 37.975 31.6875C38 31.675 38.0125 31.65 38.0125 31.625C38.5625 25.9625 37.1 21.05 34.1375 16.6875C34.125 16.675 34.1125 16.6625 34.0875 16.6625ZM20.65 28.6375C19.3625 28.6375 18.2875 27.45 18.2875 25.9875C18.2875 24.525 19.3375 23.3375 20.65 23.3375C21.975 23.3375 23.025 24.5375 23.0125 25.9875C23.0125 27.45 21.9625 28.6375 20.65 28.6375ZM29.3625 28.6375C28.075 28.6375 27 27.45 27 25.9875C27 24.525 28.05 23.3375 29.3625 23.3375C30.6875 23.3375 31.7375 24.5375 31.725 25.9875C31.725 27.45 30.6875 28.6375 29.3625 28.6375Z" fill="white"/>
<defs>
<linearGradient id="paint0_linear_208_349" x1="0" y1="25" x2="50" y2="25" gradientUnits="userSpaceOnUse">
<stop stop-color="#0075FF"/>
<stop offset="1" stop-color="#331BAB"/>
</linearGradient>
</defs>
</svg>
