<svg width="166" height="16" viewBox="0 0 166 16" fill="none" xmlns="http://www.w3.org/2000/svg">
<path d="M0.3 10.28H5.5C5.7 11.36 6.54 11.78 8.58 11.78C10.5 11.78 11.62 11.42 11.62 10.78C11.62 10.02 10.9 9.94 9.7 9.84L6.76 9.6C2.78 9.28 0.5 8.34 0.5 5.32C0.5 2.36 3.62 0.799999 8.58 0.799999C13.28 0.799999 16.48 2.36 16.72 5.7H11.58C11.46 4.7 10.5 4.22 8.58 4.22C6.8 4.22 5.8 4.58 5.8 5.22C5.8 5.92 6.44 6.14 8.28 6.28L11.26 6.52C14.22 6.76 16.94 7.58 16.94 10.8C16.94 14.38 12.88 15.2 8.58 15.2C3.2 15.2 0.54 13.38 0.3 10.28ZM22.2313 4.8H17.2313V0.999999H32.4113V4.8H27.4113V15H22.2313V4.8ZM47.7972 15H33.5172V0.999999H47.7972V4.6H38.6972V6.26H47.1972V9.74H38.6972V11.4H47.7972V15ZM54.8538 13.24L54.2738 15H48.6938L53.7738 0.999999H61.7938L66.8738 15H61.2938L60.7138 13.24H54.8538ZM57.6538 4.68L56.0338 9.64H59.5338L57.8938 4.68H57.6538ZM73.0527 0.999999V11.2H80.8727V15H67.8727V0.999999H73.0527ZM81.1789 10.28H86.3789C86.5789 11.36 87.4189 11.78 89.4589 11.78C91.3789 11.78 92.4989 11.42 92.4989 10.78C92.4989 10.02 91.7789 9.94 90.5789 9.84L87.6389 9.6C83.6589 9.28 81.3789 8.34 81.3789 5.32C81.3789 2.36 84.4989 0.799999 89.4589 0.799999C94.1589 0.799999 97.3589 2.36 97.5989 5.7H92.4589C92.3389 4.7 91.3789 4.22 89.4589 4.22C87.6789 4.22 86.6789 4.58 86.6789 5.22C86.6789 5.92 87.3189 6.14 89.1589 6.28L92.1389 6.52C95.0989 6.76 97.8189 7.58 97.8189 10.8C97.8189 14.38 93.7589 15.2 89.4589 15.2C84.0789 15.2 81.4189 13.38 81.1789 10.28ZM103.11 4.8H98.1102V0.999999H113.29V4.8H108.29V15H103.11V4.8ZM128.676 15H114.396V0.999999H128.676V4.6H119.576V6.26H128.076V9.74H119.576V11.4H128.676V15ZM129.577 8C129.577 3.62 133.217 0.799999 138.597 0.799999C143.657 0.799999 147.397 3.32 147.637 7.08H142.257C142.057 5.94 140.877 4.74 138.697 4.74C136.317 4.74 134.877 6.04 134.877 8C134.877 10.1 136.477 11.26 138.697 11.26C140.877 11.26 141.837 10.3 142.257 8.92H147.637C147.357 12.7 143.677 15.2 138.597 15.2C133.137 15.2 129.577 12.32 129.577 8ZM154.01 15H148.83V0.999999H154.01V6.16H159.85V0.999999H165.03V15H159.85V9.96H154.01V15Z" fill="url(#paint0_linear_213_417)"/>
<defs>
<linearGradient id="paint0_linear_213_417" x1="0" y1="8" x2="166" y2="8" gradientUnits="userSpaceOnUse">
<stop stop-color="white"/>
<stop offset="1" stop-color="#999999"/>
</linearGradient>
</defs>
</svg>
