<svg width="100" height="14" viewBox="0 0 100 14" fill="none" xmlns="http://www.w3.org/2000/svg">
<path d="M0.27 8.752H4.95C5.13 9.724 5.886 10.102 7.722 10.102C9.45 10.102 10.458 9.778 10.458 9.202C10.458 8.518 9.81 8.446 8.73 8.356L6.084 8.14C2.502 7.852 0.45 7.006 0.45 4.288C0.45 1.624 3.258 0.219999 7.722 0.219999C11.952 0.219999 14.832 1.624 15.048 4.63H10.422C10.314 3.73 9.45 3.298 7.722 3.298C6.12 3.298 5.22 3.622 5.22 4.198C5.22 4.828 5.796 5.026 7.452 5.152L10.134 5.368C12.798 5.584 15.246 6.322 15.246 9.22C15.246 12.442 11.592 13.18 7.722 13.18C2.88 13.18 0.486 11.542 0.27 8.752ZM20.0081 3.82H15.5081V0.399999H29.1701V3.82H24.6701V13H20.0081V3.82ZM43.0175 13H30.1655V0.399999H43.0175V3.64H34.8275V5.134H42.4775V8.266H34.8275V9.76H43.0175V13ZM49.3684 11.416L48.8464 13H43.8244L48.3964 0.399999H55.6144L60.1864 13H55.1644L54.6424 11.416H49.3684ZM51.8884 3.712L50.4304 8.176H53.5804L52.1044 3.712H51.8884ZM65.7474 0.399999V9.58H72.7854V13H61.0854V0.399999H65.7474ZM74.764 3.82H70.264V0.399999H83.926V3.82H79.426V13H74.764V3.82ZM89.5833 13H84.9213V0.399999H89.5833V5.044H94.8393V0.399999H99.5013V13H94.8393V8.464H89.5833V13Z" fill="white"/>
</svg>
