<svg width="84" height="68" viewBox="0 0 84 68" fill="none" xmlns="http://www.w3.org/2000/svg">
<path d="M52.8143 27.9589L66.9095 45.8328H16.3708L54.2516 40.3385L52.8143 27.9589Z" fill="white"/>
<path d="M34.8245 22.0708L43.2563 0.926993L68.5256 44.6947L44.827 14.6362L34.8245 22.0708Z" fill="white"/>
<path d="M38.5269 40.498L16 43.7677L41.2693 1.89618e-05L27.0872 35.5529L38.5269 40.498Z" fill="white"/>
<path d="M0.225 60.46H4.125C4.275 61.27 4.905 61.585 6.435 61.585C7.875 61.585 8.715 61.315 8.715 60.835C8.715 60.265 8.175 60.205 7.275 60.13L5.07 59.95C2.085 59.71 0.375 59.005 0.375 56.74C0.375 54.52 2.715 53.35 6.435 53.35C9.96 53.35 12.36 54.52 12.54 57.025H8.685C8.595 56.275 7.875 55.915 6.435 55.915C5.1 55.915 4.35 56.185 4.35 56.665C4.35 57.19 4.83 57.355 6.21 57.46L8.445 57.64C10.665 57.82 12.705 58.435 12.705 60.85C12.705 63.535 9.66 64.15 6.435 64.15C2.4 64.15 0.405 62.785 0.225 60.46ZM16.6734 56.35H12.9234V53.5H24.3084V56.35H20.5584V64H16.6734V56.35ZM35.8479 64H25.1379V53.5H35.8479V56.2H29.0229V57.445H35.3979V60.055H29.0229V61.3H35.8479V64ZM41.1403 62.68L40.7053 64H36.5203L40.3303 53.5H46.3453L50.1553 64H45.9703L45.5353 62.68H41.1403ZM43.2403 56.26L42.0253 59.98H44.6503L43.4203 56.26H43.2403ZM54.7895 53.5V61.15H60.6545V64H50.9045V53.5H54.7895ZM62.3033 56.35H58.5533V53.5H69.9383V56.35H66.1883V64H62.3033V56.35ZM74.6528 64H70.7678V53.5H74.6528V57.37H79.0328V53.5H82.9178V64H79.0328V60.22H74.6528V64Z" fill="white"/>
</svg>
