<svg width="4069" height="598" fill="none" xmlns="http://www.w3.org/2000/svg"><g filter="url(#a)"><path fill-rule="evenodd" clip-rule="evenodd" d="m44 176.5 82.938 21.25c82.937 21.25 248.812 63.75 414.687 42.5s331.75-127.5 497.625-85c165.87 42.5 331.75-69.569 497.62-69.569 165.88 0 331.75 133.319 497.63 69.569C2200.38 91.5 2366.25 134 2532.12 134c165.88 0 331.75-42.5 497.63 21.25 165.87 63.75 331.75 107.023 497.63 107.023 165.87 0 331.74-43.273 414.68-128.273L4025 49v510H44V176.5z" fill="url(#b)"/></g><defs><linearGradient id="b" x1="2020.84" y1="573.032" x2="2020.84" y2="63.032" gradientUnits="userSpaceOnUse"><stop stop-color="#1D1359"/><stop offset=".135" stop-color="#261D5C"/><stop offset=".865" stop-color="#073C80"/></linearGradient><filter id="a" x="0" y="0" width="4069" height="598" filterUnits="userSpaceOnUse" color-interpolation-filters="sRGB"><feFlood flood-opacity="0" result="BackgroundImageFix"/><feColorMatrix in="SourceAlpha" values="0 0 0 0 0 0 0 0 0 0 0 0 0 0 0 0 0 0 127 0" result="hardAlpha"/><feOffset dy="-5"/><feGaussianBlur stdDeviation="22"/><feComposite in2="hardAlpha" operator="out"/><feColorMatrix values="0 0 0 0 0 0 0 0 0 0 0 0 0 0 0 0 0 0 0.25 0"/><feBlend in2="BackgroundImageFix" result="effect1_dropShadow_674_39"/><feBlend in="SourceGraphic" in2="effect1_dropShadow_674_39" result="shape"/></filter></defs></svg>