<svg width="1920" height="267" fill="none" xmlns="http://www.w3.org/2000/svg"><g filter="url(#a)" fill-rule="evenodd" clip-rule="evenodd"><path d="m1920 144.041-51.12-12.004c-51.13-12.003-153.38-36.01-255.63-42.012-102.25-6.001-204.5 6.002-306.75 30.009s-204.5 60.017-306.75 66.019c-102.25 6.001-204.5-18.005-255.625-30.009L693 144.041V0h1227v144.041z" fill="url(#b)"/><path d="m0 144 50-12c50-12 150-36 250-42s200 6 300 30 200 60 300 66 200-18 250-30l50-12V0H0v144z" fill="url(#c)"/></g><defs><linearGradient id="b" x1="1565.17" y1="66.966" x2="354.827" y2="-229.034" gradientUnits="userSpaceOnUse"><stop stop-color="#26135F"/><stop offset="1" stop-color="#0867A8"/></linearGradient><linearGradient id="c" x1="1565.17" y1="66.966" x2="354.827" y2="-229.034" gradientUnits="userSpaceOnUse"><stop stop-color="#26135F"/><stop offset="1" stop-color="#0867A8"/></linearGradient><filter id="a" x="-100" y="-120" width="2120" height="387" filterUnits="userSpaceOnUse" color-interpolation-filters="sRGB"><feFlood flood-opacity="0" result="BackgroundImageFix"/><feColorMatrix in="SourceAlpha" values="0 0 0 0 0 0 0 0 0 0 0 0 0 0 0 0 0 0 127 0" result="hardAlpha"/><feOffset dy="-20"/><feGaussianBlur stdDeviation="50"/><feComposite in2="hardAlpha" operator="out"/><feColorMatrix values="0 0 0 0 0 0 0 0 0 0 0 0 0 0 0 0 0 0 0.25 0"/><feBlend in2="BackgroundImageFix" result="effect1_dropShadow_674_28"/><feColorMatrix in="SourceAlpha" values="0 0 0 0 0 0 0 0 0 0 0 0 0 0 0 0 0 0 127 0" result="hardAlpha"/><feOffset dy="10"/><feGaussianBlur stdDeviation="19.7"/><feComposite in2="hardAlpha" operator="out"/><feColorMatrix values="0 0 0 0 0 0 0 0 0 0 0 0 0 0 0 0 0 0 0.25 0"/><feBlend in2="effect1_dropShadow_674_28" result="effect2_dropShadow_674_28"/><feBlend in="SourceGraphic" in2="effect2_dropShadow_674_28" result="shape"/></filter></defs></svg>