<svg width="340" height="477" fill="none" xmlns="http://www.w3.org/2000/svg"><path fill-rule="evenodd" clip-rule="evenodd" d="m-196.37 17.263 20.32 2.877c20.321 2.877 60.961 8.631 101.601 5.754C-33.809 23.017 6.832 8.63 47.473 14.386c40.64 5.754 81.28-9.42 121.921-9.42 40.64 0 81.281 18.05 121.921 9.42 40.641-8.632 81.281-2.878 121.921-2.878 40.641 0 81.281-5.754 121.921 2.878 40.641 8.63 81.281 14.49 121.922 14.49 40.64 0 81.281-5.86 101.601-17.368L779 0l-13.63 477H-210l13.63-459.737z" fill="url(#a)"/><defs><linearGradient id="a" x1="287.969" y1="460.704" x2="287.969" y2="1.9" gradientUnits="userSpaceOnUse"><stop stop-color="#1D1359"/><stop offset=".5" stop-color="#261D5C"/><stop offset=".865" stop-color="#073C80"/></linearGradient></defs></svg>