<svg width="1919" height="189" viewBox="0 0 1919 189" fill="none" xmlns="http://www.w3.org/2000/svg">
<path fill-rule="evenodd" clip-rule="evenodd" d="M1919 117L1850.03 117.181C1769.6 117.181 1608.73 117.181 1447.85 75.2859C1286.98 33.3913 1126.11 -15.1222 965.235 -3.15229C804.362 8.81762 643.49 81.2709 482.618 117.181C321.745 153.09 160.873 117.181 80.4364 99.2257L0.00012207 81.2709V189H74.9064C155.343 189 316.215 189 477.088 189C637.96 189 798.833 189 959.705 189C1120.58 189 1281.45 189 1442.32 189C1603.2 189 1764.07 189 1844.5 189H1919V117Z" fill="url(#paint0_linear_658_46)"/>
<defs>
<linearGradient id="paint0_linear_658_46" x1="1930.47" y1="179.5" x2="-0.000160198" y2="179.5" gradientUnits="userSpaceOnUse">
<stop stop-color="#0768A8"/>
<stop offset="1" stop-color="#4C12AD"/>
</linearGradient>
</defs>
</svg>
