<svg width="1919" height="189" viewBox="0 0 1919 189" fill="none" xmlns="http://www.w3.org/2000/svg">
<g filter="url(#filter0_dd_658_48)">
<path fill-rule="evenodd" clip-rule="evenodd" d="M1919 66.5L1845.5 64.7856C1765.07 64.7856 1604.2 64.7855 1443.32 102.577C1282.45 140.369 1121.58 184.131 960.705 173.333C799.833 162.536 638.96 97.1783 478.088 64.7856C317.215 32.3928 156.343 64.7855 75.9064 80.9819L1.00012 99.5V0H75.9064C156.343 0 317.215 0 478.088 0C638.96 0 799.833 0 960.705 0C1121.58 0 1282.45 0 1443.32 0C1604.2 0 1765.07 0 1845.5 0H1919V66.5Z" fill="url(#paint0_linear_658_48)"/>
</g>
<defs>
<filter id="filter0_dd_658_48" x="-136.4" y="-137.4" width="2192.8" height="449.8" filterUnits="userSpaceOnUse" color-interpolation-filters="sRGB">
<feFlood flood-opacity="0" result="BackgroundImageFix"/>
<feColorMatrix in="SourceAlpha" type="matrix" values="0 0 0 0 0 0 0 0 0 0 0 0 0 0 0 0 0 0 127 0" result="hardAlpha"/>
<feOffset/>
<feGaussianBlur stdDeviation="68.7"/>
<feComposite in2="hardAlpha" operator="out"/>
<feColorMatrix type="matrix" values="0 0 0 0 0 0 0 0 0 0 0 0 0 0 0 0 0 0 0.25 0"/>
<feBlend mode="normal" in2="BackgroundImageFix" result="effect1_dropShadow_658_48"/>
<feColorMatrix in="SourceAlpha" type="matrix" values="0 0 0 0 0 0 0 0 0 0 0 0 0 0 0 0 0 0 127 0" result="hardAlpha"/>
<feOffset dy="7"/>
<feGaussianBlur stdDeviation="18.8"/>
<feComposite in2="hardAlpha" operator="out"/>
<feColorMatrix type="matrix" values="0 0 0 0 0 0 0 0 0 0 0 0 0 0 0 0 0 0 0.25 0"/>
<feBlend mode="normal" in2="effect1_dropShadow_658_48" result="effect2_dropShadow_658_48"/>
<feBlend mode="normal" in="SourceGraphic" in2="effect2_dropShadow_658_48" result="shape"/>
</filter>
<linearGradient id="paint0_linear_658_48" x1="1931.47" y1="-9.49998" x2="0.999924" y2="-9.49998" gradientUnits="userSpaceOnUse">
<stop stop-color="#0768A8"/>
<stop offset="1" stop-color="#4C12AD"/>
</linearGradient>
</defs>
</svg>
