<svg width="1920" height="187" fill="none" xmlns="http://www.w3.org/2000/svg"><g filter="url(#b)" fill-rule="evenodd" clip-rule="evenodd" clip-path="url(#a)"><path d="m1920 42.96-51.12 12.003c-51.13 12.003-153.38 36.01-255.63 42.012-102.25 6.001-204.5-6.002-306.75-30.009S1102 6.95 999.75.947C897.5-5.054 795.25 18.953 744.125 30.956L693 42.959V187h1227V42.96z" fill="url(#c)"/><path d="m0 42.947 50 12c50 12 150 36 250 42s200-6 300-30 200-60 300-66 200 18 250 30l50 12v144H0v-144z" fill="url(#d)"/></g><defs><linearGradient id="c" x1="1565.17" y1="296" x2="354.827" y2="0" gradientUnits="userSpaceOnUse"><stop stop-color="#26135F"/><stop offset="1" stop-color="#0867A8"/></linearGradient><linearGradient id="d" x1="1565.17" y1="296" x2="354.827" y2="0" gradientUnits="userSpaceOnUse"><stop stop-color="#26135F"/><stop offset="1" stop-color="#0867A8"/></linearGradient><clipPath id="a"><path fill="#fff" d="M0 0h1920v187H0z"/></clipPath><filter id="b" x="-100" y="-120" width="2120" height="387" filterUnits="userSpaceOnUse" color-interpolation-filters="sRGB"><feFlood flood-opacity="0" result="BackgroundImageFix"/><feColorMatrix in="SourceAlpha" values="0 0 0 0 0 0 0 0 0 0 0 0 0 0 0 0 0 0 127 0" result="hardAlpha"/><feOffset dy="-20"/><feGaussianBlur stdDeviation="50"/><feComposite in2="hardAlpha" operator="out"/><feColorMatrix values="0 0 0 0 0 0 0 0 0 0 0 0 0 0 0 0 0 0 0.25 0"/><feBlend in2="BackgroundImageFix" result="effect1_dropShadow_664_6"/><feColorMatrix in="SourceAlpha" values="0 0 0 0 0 0 0 0 0 0 0 0 0 0 0 0 0 0 127 0" result="hardAlpha"/><feOffset dy="10"/><feGaussianBlur stdDeviation="19.7"/><feComposite in2="hardAlpha" operator="out"/><feColorMatrix values="0 0 0 0 0 0 0 0 0 0 0 0 0 0 0 0 0 0 0.25 0"/><feBlend in2="effect1_dropShadow_664_6" result="effect2_dropShadow_664_6"/><feBlend in="SourceGraphic" in2="effect2_dropShadow_664_6" result="shape"/></filter></defs></svg>